<?xml version="1.0" standalone="no"?>
<!DOCTYPE svg PUBLIC "-//W3C//DTD SVG 20010904//EN"
 "http://www.w3.org/TR/2001/REC-SVG-20010904/DTD/svg10.dtd">
<svg version="1.0" xmlns="http://www.w3.org/2000/svg"
 width="577.000000pt" height="577.000000pt" viewBox="0 0 577.000000 577.000000"
 preserveAspectRatio="xMidYMid meet">
<metadata>
Created by potrace 1.14, written by Peter Selinger 2001-2017
</metadata>
<g transform="translate(0.000000,577.000000) scale(0.100000,-0.100000)"
fill="#000000" stroke="none">
<path d="M2867 4662 c-10 -10 -17 -21 -17 -25 0 -3 -26 -61 -58 -129 -33 -68
-72 -150 -87 -183 -50 -107 -135 -286 -212 -445 -42 -85 -92 -191 -113 -235
-45 -97 -110 -233 -199 -420 -37 -77 -82 -170 -99 -207 -18 -37 -32 -76 -32
-88 0 -12 95 -214 211 -449 241 -487 218 -442 252 -503 15 -27 24 -48 22 -48
-3 0 7 -19 22 -42 14 -24 26 -44 26 -45 -4 -9 11 -43 18 -43 5 0 9 -9 9 -20 0
-11 5 -20 10 -20 6 0 10 -5 10 -12 0 -17 51 -122 64 -130 6 -4 7 -8 3 -8 -5 0
3 -21 17 -47 54 -100 156 -316 156 -329 0 -8 4 -14 10 -14 5 0 7 -6 4 -13 -2
-7 2 -21 10 -32 14 -18 15 -18 16 -2 0 9 4 17 9 17 5 0 13 10 16 23 9 27 58
130 344 720 56 115 101 211 101 214 0 3 9 17 19 31 10 15 19 30 20 35 0 4 27
60 58 125 32 64 58 119 58 122 0 3 4 11 9 19 13 20 207 412 217 439 5 12 5 22
0 22 -4 0 -8 6 -8 14 0 20 -273 577 -296 605 -7 8 -11 17 -10 20 1 3 -41 94
-94 201 -220 450 -306 626 -314 640 -5 8 -12 22 -15 30 -19 46 -80 165 -86
168 -5 2 -8 10 -8 19 0 16 -23 43 -38 43 -5 0 -16 -8 -25 -18z"/>
</g>
</svg>
